<?xml version="1.0" encoding="UTF-8"?>
<svg width="1012px" height="469px" viewBox="0 0 1012 469" version="1.1" xmlns="http://www.w3.org/2000/svg" xmlns:xlink="http://www.w3.org/1999/xlink">
    <!-- Generator: Sketch 46.2 (44496) - http://www.bohemiancoding.com/sketch -->
    <title>LeApp Logo</title>
    <desc>Created with Sketch.</desc>
    <defs>
        <path d="M75.0002464,469 L0.000242359065,469 C8.70501895e-05,468.833354 0,468.666687 0,468.5 C0,209.754595 209.754595,0 468.5,0 C481.122817,0 493.629039,0.49920484 506,1.47894904 C264.788169,20.5822261 75,222.377412 75,468.5 C75,468.666687 75.0000871,468.833354 75.0002611,469 Z" id="path-1"></path>
        <path d="M581.000246,469 L506.000242,469 C506.000087,468.833354 506,468.666687 506,468.5 C506,209.754595 715.754595,0 974.5,0 C987.122817,0 999.629039,0.49920484 1012,1.47894904 C770.788169,20.5822261 581,222.377412 581,468.5 C581,468.666687 581.000087,468.833354 581.000261,469 Z" id="path-2"></path>
    </defs>
    <g id="Page-1" stroke="none" stroke-width="1" fill="none" fill-rule="evenodd">
        <g id="LeApp-Logo">
            <g id="Combined-Shape">
                <use fill="#9B9B9B" fill-rule="evenodd" xlink:href="#path-1"></use>
                <path stroke="#000000" stroke-width="2" d="M74.0002615,468 C74.2522245,227.166846 256.524314,26.7801279 493.332617,1.64821082 C485.084989,1.2165768 476.805615,1 468.5,1 C210.473567,1 1.27027349,210.036714 1.00026167,468 L74.0002473,468 L74.0002615,468 Z"></path>
            </g>
            <g id="Combined-Shape" transform="translate(759.000000, 234.500000) scale(-1, 1) translate(-759.000000, -234.500000) ">
                <use fill="#4A4A4A" fill-rule="evenodd" xlink:href="#path-2"></use>
                <path stroke="#000000" stroke-width="2" d="M580.000262,468 C580.252224,227.166846 762.524314,26.7801279 999.332617,1.64821082 C991.084989,1.2165768 982.805615,1 974.5,1 C716.473567,1 507.270273,210.036714 507.000262,468 L580.000247,468 L580.000262,468 Z"></path>
            </g>
        </g>
    </g>
</svg>